<?xml version="1.0" encoding="UTF-8"?> <svg xmlns="http://www.w3.org/2000/svg" width="49" height="17" viewBox="0 0 49 17" fill="none"><path d="M10.7696 8.38447H15.7416C14.9359 8.7099 14.4249 9.45646 14.4249 10.2796V16.8455L12.7152 16.1755C12.5383 16.099 12.3221 16.0607 12.1256 16.0607C11.9684 16.0607 11.8308 16.0798 11.6736 16.1372C10.9464 16.3861 9.57076 16.7881 8.29335 16.7881C3.32127 16.7881 0 13.0744 0 8.38447C0 3.75196 2.92822 0 8.25404 0C10.1407 0 12.047 0.918846 13.4423 1.78026C13.6192 1.87598 13.8157 1.93341 13.9926 1.93341C14.2481 1.93341 14.5035 1.83769 14.6608 1.60798L13.5602 5.2068C13.5602 5.2068 12.5186 0.267997 7.66447 0.267997C5.64026 0.267997 2.22073 2.08655 2.22073 7.04449C2.22073 13.2084 6.7408 15.6012 9.8852 15.6012H9.9245C10.632 15.6012 11.3788 15.429 12.0863 15.161V10.2796C12.0863 9.85846 11.9487 9.4756 11.7325 9.15018C11.4967 8.80561 11.1626 8.53762 10.7696 8.38447Z" fill="#252525"></path><path d="M24.7147 0C29.0186 0 32.5167 3.7711 32.5167 8.38447C32.5167 12.9978 29.0186 16.8455 24.7147 16.8455C20.4108 16.8455 16.9126 12.9978 16.9126 8.38447C16.9126 3.7711 20.4108 0 24.7147 0ZM24.7147 16.501C27.7412 16.501 30.1977 12.8256 30.1977 8.38447C30.1977 3.92424 27.7412 0.287139 24.7147 0.287139C21.6882 0.287139 19.2316 3.92424 19.2316 8.38447C19.2316 12.8256 21.6882 16.501 24.7147 16.501Z" fill="#252525"></path><path d="M49.0051 1.60798L47.9046 5.22594C47.9046 5.22594 46.8434 0.267997 41.9892 0.267997C39.965 0.267997 36.5258 2.10569 36.5258 7.06363C36.5258 13.2658 41.1049 15.6587 44.2493 15.6587C46.0966 15.6395 48.1797 14.5867 49.0051 13.419L48.9069 14.1464C48.5335 14.6058 46.7058 16.8455 42.6181 16.8455C38.2159 16.8455 34.3051 13.1318 34.3051 8.42276C34.3051 3.7711 37.253 0 42.5788 0C44.4654 0 46.3914 0.918846 47.7867 1.78026C47.9636 1.87598 48.1601 1.93341 48.337 1.93341C48.5924 1.93341 48.8479 1.83769 49.0051 1.60798Z" fill="#252525"></path><path d="M24.4766 0.199585H24.9766V16.6683L24.4766 16.6176V0.199585Z" fill="#252525"></path><path d="M25.4766 0.0565796L25.9766 0.376827V16.4693L25.4766 16.5918V0.0565796Z" fill="#252525"></path><path d="M24 0.0565796L23.5 0.376827V16.4693L24 16.5918V0.0565796Z" fill="#252525"></path></svg> 